# xmcd
#
# Track frame offsets:
#	150
#	14207
#	30248
#	45667
#	61665
#	75689
#	92746
#	110173
#	131180
#	148292
#	166366
#	178546
#	191955
#	204458
#	218516
#	232833
#	247666
#	261064
#	277499
#	293563
#	309514
#
# Disc length: 4315 seconds
# Revision: 2
# Processed by: cddbd v1.5.2PL0 Copyright (c) Steve Scherf et al.
# Submitted via: dBpowerAMP V12.0
#
DISCID=3310d915
DTITLE=Various Artist - So Country 2019
DYEAR=2019
DGENRE=Country Sampler
TTITLE0=Old Dominion - Make It Sweet
TTITLE1=Sam Hunt - Downtown's Dead
TTITLE2=Adam Eckersley and Brooke McClymont - Nothing Left To Win
TTITLE3=Kacey Musgraves - High Horse
TTITLE4=Dylan Scott - Nothin' To Do Town
TTITLE5=Adam Harvey - When Willie's Gone
TTITLE6=Brad Paisley - Last Time For Everything
TTITLE7=Judah Kelly - Ain't No Thing
TTITLE8=Tenille Townes - Somebody's Daughter
TTITLE9=Melanie Dyer - Fit You In A Song
TTITLE10=Tyler Farr - Love By The Moon
TTITLE11=Willie Nelson - Last Man Standing
TTITLE12=Ward Thomas - Never Know
TTITLE13=Gord Bamford - Dive Bar
TTITLE14=Walker Hayes - Craig
TTITLE15=Adam Hambrick - Rockin' All Night Long
TTITLE16=Ryan Hurd - To A T
TTITLE17=Brandon Lay - Yada Yada Yada (New Album And Radio Version)
TTITLE18=Rachel Wammack - Damage
TTITLE19=Clare Dunn - More
TTITLE20=Teddy Robb - Lead Me On
EXTD=
EXTT0=
EXTT1=
EXTT2=
EXTT3=
EXTT4=
EXTT5=
EXTT6=
EXTT7=
EXTT8=
EXTT9=
EXTT10=
EXTT11=
EXTT12=
EXTT13=
EXTT14=
EXTT15=
EXTT16=
EXTT17=
EXTT18=
EXTT19=
EXTT20=
PLAYORDER=
